<svg width="35" height="36" viewBox="0 0 35 36" fill="none" xmlns="http://www.w3.org/2000/svg">
<circle cx="17.5" cy="18.5" r="17" fill="#F5DA81" stroke="black"/>
<path d="M17.05 24.66C17.89 24.66 18.49 24.87 18.85 25.29C19.21 25.69 19.39 26.26 19.39 27C19.39 27.32 19.35 27.67 19.27 28.05C19.19 28.43 19.04 28.79 18.82 29.13C18.62 29.45 18.32 29.73 17.92 29.97C17.54 30.19 17.04 30.3 16.42 30.3C15.52 30.3 14.91 30.07 14.59 29.61C14.27 29.13 14.11 28.54 14.11 27.84C14.11 27.44 14.16 27.05 14.26 26.67C14.36 26.29 14.52 25.95 14.74 25.65C14.96 25.35 15.26 25.11 15.64 24.93C16.02 24.75 16.49 24.66 17.05 24.66ZM19.3 21.96C19.16 22.24 19.04 22.41 18.94 22.47C18.84 22.53 18.71 22.56 18.55 22.56H17.47C16.69 22.56 16.13 22.4 15.79 22.08C15.45 21.74 15.28 21.33 15.28 20.85C15.28 20.39 15.4 19.95 15.64 19.53C15.9 19.09 16.22 18.67 16.6 18.27C16.98 17.87 17.38 17.48 17.8 17.1C18.24 16.7 18.65 16.31 19.03 15.93C19.41 15.53 19.72 15.13 19.96 14.73C20.22 14.31 20.35 13.87 20.35 13.41C20.35 12.93 20.19 12.49 19.87 12.09C19.57 11.67 19.07 11.46 18.37 11.46C17.83 11.46 17.39 11.57 17.05 11.79C16.73 12.01 16.47 12.29 16.27 12.63C16.07 12.97 15.92 13.35 15.82 13.77C15.72 14.17 15.63 14.57 15.55 14.97C15.51 15.19 15.44 15.34 15.34 15.42C15.26 15.48 15.04 15.51 14.68 15.51C13.46 15.51 12.59 15.3 12.07 14.88C11.57 14.44 11.32 13.77 11.32 12.87C11.32 11.93 11.54 11.12 11.98 10.44C12.44 9.76 13.03 9.2 13.75 8.76C14.49 8.32 15.32 8 16.24 7.8C17.18 7.58 18.13 7.47 19.09 7.47C20.23 7.47 21.2 7.62 22 7.92C22.82 8.2 23.49 8.59 24.01 9.09C24.53 9.57 24.91 10.14 25.15 10.8C25.41 11.44 25.54 12.11 25.54 12.81C25.54 13.87 25.28 14.81 24.76 15.63C24.24 16.45 23.63 17.21 22.93 17.91C22.23 18.61 21.53 19.28 20.83 19.92C20.15 20.56 19.64 21.24 19.3 21.96Z" fill="#B40025"/>
<path d="M18.85 25.29L18.0907 25.9408L18.0986 25.95L18.1067 25.959L18.85 25.29ZM18.82 29.13L17.9804 28.5867L17.9762 28.5933L17.972 28.6L18.82 29.13ZM17.92 29.97L18.421 30.8354L18.4278 30.8315L18.4345 30.8275L17.92 29.97ZM14.59 29.61L13.758 30.1647L13.7634 30.1729L13.7691 30.1811L14.59 29.61ZM15.64 24.93L15.2119 24.0263H15.2119L15.64 24.93ZM19.3 21.96L20.1944 22.4072L20.1995 22.3972L20.2042 22.387L19.3 21.96ZM18.94 22.47L18.4255 21.6125H18.4255L18.94 22.47ZM15.79 22.08L15.0829 22.7871L15.0936 22.7978L15.1046 22.8082L15.79 22.08ZM15.64 19.53L14.7791 19.0213L14.7754 19.0275L14.7718 19.0339L15.64 19.53ZM16.6 18.27L15.875 17.5812H15.875L16.6 18.27ZM17.8 17.1L18.4709 17.8415L18.4727 17.8399L17.8 17.1ZM19.03 15.93L19.7371 16.6371L19.7462 16.628L19.755 16.6187L19.03 15.93ZM19.96 14.73L19.1097 14.2036L19.1025 14.2155L19.96 14.73ZM19.87 12.09L19.0563 12.6712L19.0721 12.6934L19.0891 12.7147L19.87 12.09ZM17.05 11.79L16.5067 10.9504L16.495 10.958L16.4835 10.966L17.05 11.79ZM16.27 12.63L15.4081 12.123L15.4081 12.123L16.27 12.63ZM15.82 13.77L16.7902 14.0126L16.7928 14.0016L15.82 13.77ZM15.55 14.97L14.5694 14.7739L14.5677 14.7825L14.5661 14.7911L15.55 14.97ZM15.34 15.42L15.94 16.22L15.9525 16.2106L15.9647 16.2009L15.34 15.42ZM12.07 14.88L11.4094 15.6307L11.4252 15.6447L11.4417 15.6579L12.07 14.88ZM11.98 10.44L11.1517 9.87969L11.146 9.88816L11.1404 9.89675L11.98 10.44ZM13.75 8.76L13.2389 7.9004L13.2286 7.90672L13.75 8.76ZM16.24 7.8L16.4524 8.77718L16.4602 8.77549L16.4679 8.77369L16.24 7.8ZM22 7.92L21.6489 8.85633L21.6628 8.86155L21.6769 8.86635L22 7.92ZM24.01 9.09L23.3169 9.81083L23.3242 9.81789L23.3317 9.8248L24.01 9.09ZM25.15 10.8L24.2102 11.1417L24.2165 11.1592L24.2235 11.1764L25.15 10.8ZM24.76 15.63L25.6045 16.1655L24.76 15.63ZM20.83 19.92L20.1552 19.182L20.1499 19.1868L20.1446 19.1918L20.83 19.92ZM17.05 25.66C17.7506 25.66 18.0015 25.8367 18.0907 25.9408L19.6093 24.6392C18.9785 23.9033 18.0294 23.66 17.05 23.66V25.66ZM18.1067 25.959C18.2482 26.1162 18.39 26.4138 18.39 27H20.39C20.39 26.1062 20.1718 25.2638 19.5933 24.621L18.1067 25.959ZM18.39 27C18.39 27.238 18.3601 27.5179 18.2915 27.844L20.2486 28.256C20.3399 27.8221 20.39 27.402 20.39 27H18.39ZM18.2915 27.844C18.2378 28.0989 18.1367 28.3452 17.9804 28.5867L19.6596 29.6733C19.9433 29.2348 20.1422 28.7611 20.2486 28.256L18.2915 27.844ZM17.972 28.6C17.8732 28.7581 17.7014 28.9349 17.4055 29.1125L18.4345 30.8275C18.9386 30.5251 19.3668 30.1419 19.668 29.66L17.972 28.6ZM17.419 29.1046C17.2413 29.2074 16.9327 29.3 16.42 29.3V31.3C17.1473 31.3 17.8387 31.1726 18.421 30.8354L17.419 29.1046ZM16.42 29.3C15.6448 29.3 15.4523 29.0985 15.4109 29.0389L13.7691 30.1811C14.3677 31.0415 15.3952 31.3 16.42 31.3V29.3ZM15.4221 29.0553C15.233 28.7718 15.11 28.3852 15.11 27.84H13.11C13.11 28.6948 13.307 29.4882 13.758 30.1647L15.4221 29.0553ZM15.11 27.84C15.11 27.5243 15.1493 27.2199 15.2271 26.9245L13.2929 26.4155C13.1707 26.8801 13.11 27.3557 13.11 27.84H15.11ZM15.2271 26.9245C15.297 26.659 15.4047 26.4345 15.5464 26.2414L13.9336 25.0586C13.6353 25.4655 13.423 25.921 13.2929 26.4155L15.2271 26.9245ZM15.5464 26.2414C15.656 26.0919 15.8184 25.952 16.0681 25.8337L15.2119 24.0263C14.7016 24.268 14.264 24.6081 13.9336 25.0586L15.5464 26.2414ZM16.0681 25.8337C16.2776 25.7345 16.5912 25.66 17.05 25.66V23.66C16.3888 23.66 15.7624 23.7655 15.2119 24.0263L16.0681 25.8337ZM18.4056 21.5128C18.3778 21.5683 18.3536 21.6133 18.3329 21.6491C18.312 21.6853 18.2969 21.7082 18.288 21.7208C18.2784 21.7344 18.2808 21.7291 18.2961 21.7132C18.3043 21.7046 18.3182 21.6908 18.3383 21.6741C18.3581 21.6576 18.3871 21.6355 18.4255 21.6125L19.4545 23.3275C19.6833 23.1902 19.8349 22.9975 19.922 22.8742C20.0216 22.7331 20.1119 22.5722 20.1944 22.4072L18.4056 21.5128ZM18.4255 21.6125C18.5284 21.5508 18.5935 21.56 18.55 21.56V23.56C18.8265 23.56 19.1516 23.5092 19.4545 23.3275L18.4255 21.6125ZM18.55 21.56H17.47V23.56H18.55V21.56ZM17.47 21.56C16.7848 21.56 16.5393 21.412 16.4754 21.3518L15.1046 22.8082C15.7207 23.388 16.5952 23.56 17.47 23.56V21.56ZM16.4971 21.3729C16.3443 21.2201 16.28 21.0643 16.28 20.85H14.28C14.28 21.5957 14.5557 22.2599 15.0829 22.7871L16.4971 21.3729ZM16.28 20.85C16.28 20.5731 16.35 20.3031 16.5082 20.0261L14.7718 19.0339C14.45 19.5969 14.28 20.2069 14.28 20.85H16.28ZM16.5009 20.0387C16.7196 19.6686 16.9929 19.3084 17.325 18.9587L15.875 17.5812C15.4471 18.0316 15.0804 18.5114 14.7791 19.0213L16.5009 20.0387ZM17.325 18.9587C17.6872 18.5775 18.0691 18.2051 18.4709 17.8415L17.1291 16.3585C16.6909 16.7549 16.2728 17.1625 15.875 17.5812L17.325 18.9587ZM18.4727 17.8399C18.9232 17.4304 19.3448 17.0294 19.7371 16.6371L18.3229 15.2229C17.9552 15.5906 17.5568 15.9696 17.1273 16.3601L18.4727 17.8399ZM19.755 16.6187C20.1765 16.175 20.5337 15.7174 20.8175 15.2445L19.1025 14.2155C18.9063 14.5426 18.6435 14.885 18.305 15.2413L19.755 16.6187ZM20.8103 15.2564C21.1606 14.6904 21.35 14.0697 21.35 13.41H19.35C19.35 13.6702 19.2794 13.9296 19.1097 14.2036L20.8103 15.2564ZM21.35 13.41C21.35 12.6871 21.1025 12.0298 20.6509 11.4653L19.0891 12.7147C19.2775 12.9502 19.35 13.1729 19.35 13.41H21.35ZM20.6837 11.5088C20.1335 10.7385 19.2679 10.46 18.37 10.46V12.46C18.8721 12.46 19.0065 12.6015 19.0563 12.6712L20.6837 11.5088ZM18.37 10.46C17.7 10.46 17.0543 10.5961 16.5067 10.9504L17.5933 12.6296C17.7257 12.5439 17.96 12.46 18.37 12.46V10.46ZM16.4835 10.966C16.0411 11.2701 15.681 11.659 15.4081 12.123L17.1319 13.137C17.259 12.921 17.4189 12.7499 17.6165 12.614L16.4835 10.966ZM15.4081 12.123C15.1531 12.5564 14.9681 13.0307 14.8472 13.5384L16.7928 14.0016C16.8719 13.6693 16.9869 13.3836 17.1319 13.137L15.4081 12.123ZM14.8499 13.5275C14.7461 13.9427 14.6526 14.3582 14.5694 14.7739L16.5306 15.1661C16.6074 14.7818 16.6939 14.3973 16.7901 14.0125L14.8499 13.5275ZM14.5661 14.7911C14.5565 14.8442 14.5499 14.849 14.5613 14.8246C14.573 14.7996 14.6153 14.7191 14.7153 14.6391L15.9647 16.2009C16.3503 15.8923 16.48 15.4454 16.5339 15.1489L14.5661 14.7911ZM14.74 14.62C14.8002 14.5749 14.8535 14.5472 14.8881 14.5314C14.9237 14.5152 14.9513 14.5061 14.9664 14.5015C14.9945 14.4931 15.0028 14.4935 14.9799 14.4967C14.9595 14.4995 14.9246 14.503 14.8721 14.5057C14.8203 14.5084 14.7567 14.51 14.68 14.51V16.51C14.8811 16.51 15.0766 16.502 15.2501 16.4783C15.3699 16.462 15.6763 16.4178 15.94 16.22L14.74 14.62ZM14.68 14.51C13.5223 14.51 12.9439 14.3004 12.6983 14.1021L11.4417 15.6579C12.2361 16.2996 13.3977 16.51 14.68 16.51V14.51ZM12.7306 14.1293C12.5149 13.9394 12.32 13.5886 12.32 12.87H10.32C10.32 13.9514 10.6251 14.9406 11.4094 15.6307L12.7306 14.1293ZM12.32 12.87C12.32 12.0911 12.5002 11.4768 12.8196 10.9833L11.1404 9.89675C10.5798 10.7632 10.32 11.7689 10.32 12.87H12.32ZM12.8083 11.0003C13.1859 10.4421 13.67 9.98082 14.2714 9.61328L13.2286 7.90672C12.39 8.41917 11.6941 9.07787 11.1517 9.87969L12.8083 11.0003ZM14.2611 9.61954C14.9003 9.23948 15.6279 8.95643 16.4524 8.77718L16.0276 6.82282C15.0121 7.04357 14.0797 7.40052 13.2389 7.90046L14.2611 9.61954ZM16.4679 8.77369C17.3336 8.57107 18.2072 8.47 19.09 8.47V6.47C18.0528 6.47 17.0264 6.58893 16.0121 6.82631L16.4679 8.77369ZM19.09 8.47C20.1478 8.47 20.9917 8.6099 21.6489 8.85633L22.3511 6.98367C21.4083 6.6301 20.3122 6.47 19.09 6.47V8.47ZM21.6769 8.86635C22.3859 9.10847 22.9213 9.43045 23.3169 9.81083L24.7031 8.36917C24.0587 7.74954 23.2541 7.29152 22.3231 6.97365L21.6769 8.86635ZM23.3317 9.8248C23.7354 10.1974 24.0252 10.633 24.2102 11.1417L26.0898 10.4583C25.7948 9.64705 25.3246 8.9426 24.6883 8.3552L23.3317 9.8248ZM24.2235 11.1764C24.4343 11.6952 24.54 12.2373 24.54 12.81H26.54C26.54 11.9827 26.3857 11.1848 26.0765 10.4236L24.2235 11.1764ZM24.54 12.81C24.54 13.6984 24.3247 14.4492 23.9155 15.0945L25.6045 16.1655C26.2353 15.1708 26.54 14.0416 26.54 12.81H24.54ZM23.9155 15.0945C23.4356 15.8512 22.8719 16.5538 22.2229 17.2029L23.6371 18.6171C24.3881 17.8662 25.0444 17.0488 25.6045 16.1655L23.9155 15.0945ZM22.2229 17.2029C21.533 17.8928 20.8438 18.5525 20.1552 19.182L21.5048 20.658C22.2162 20.0075 22.927 19.3272 23.6371 18.6171L22.2229 17.2029ZM20.1446 19.1918C19.3889 19.903 18.7976 20.682 18.3958 21.533L20.2042 22.387C20.4824 21.798 20.9111 21.217 21.5154 20.6482L20.1446 19.1918Z" fill="black"/>
</svg>
