<svg width="22" height="22" viewBox="0 0 22 22" fill="none" xmlns="http://www.w3.org/2000/svg">
<path d="M10.5 12.5583V19.5707L5.24244 14.3131L5.096 14.1667H4.88889H0.5V7.83333H5.775H6.98211L6.12855 6.97978L0.707107 1.55833L1.55833 0.707107L10.6464 9.79522L21.2929 20.4417L20.4412 21.2933L18.3015 19.1588L17.9812 18.8393L17.6313 19.1261C16.5585 20.0057 15.309 20.6767 13.9444 21.0778V19.5638C14.8846 19.2334 15.7411 18.7427 16.5053 18.1553L16.9569 17.8081L16.5541 17.4053L11.3536 12.2048L10.5 11.3512V12.5583ZM13.9444 6.96677C15.093 7.80383 15.8709 9.11692 15.9854 10.6155L13.9444 8.57456V6.96677ZM19.4804 14.1044C19.8387 13.1425 20.0556 12.1024 20.0556 11C20.0556 7.02977 17.4978 3.66126 13.9444 2.44029V0.92703C18.3078 2.20027 21.5 6.22806 21.5 11C21.5 12.5045 21.1766 13.9317 20.6029 15.2269L19.4804 14.1044ZM10.5 5.124L9.15266 3.77667L10.5 2.42933V5.124Z" fill="#B40025" stroke="black"/>
</svg>
