<svg width="22" height="23" viewBox="0 0 22 23" fill="none" xmlns="http://www.w3.org/2000/svg">
<path d="M5.24617 15.1291L5.09911 14.9789H4.88889H0.5V8.4884H4.88889H5.09911L5.24617 8.33818L10.5 2.97176V20.4955L5.24617 15.1291ZM13.9444 7.6054C15.1881 8.53327 16 10.0344 16 11.7336C16 13.4324 15.1885 14.9338 13.9444 15.8657V7.6054ZM20.0556 11.7336C20.0556 7.6887 17.503 4.24799 13.9444 3.00061V1.43451C18.3021 2.73439 21.5 6.84246 21.5 11.7336C21.5 16.6248 18.3021 20.7329 13.9444 22.0328V20.4667C17.503 19.2193 20.0556 15.7786 20.0556 11.7336Z" fill="#B40025" stroke="black"/>
</svg>
