<svg width="35" height="39" viewBox="0 0 35 39" fill="none" xmlns="http://www.w3.org/2000/svg">
<circle cx="17.5" cy="21.5" r="17" fill="#F5DA81" stroke="black"/>
<path d="M18.24 18.93C18.66 18.39 19.07 17.79 19.47 17.13C19.87 16.45 20.24 15.83 20.58 15.27C20.94 14.69 21.26 14.21 21.54 13.83C21.82 13.43 22.05 13.23 22.23 13.23C22.37 13.23 22.57 13.34 22.83 13.56C23.11 13.78 23.38 14.06 23.64 14.4C23.92 14.74 24.16 15.13 24.36 15.57C24.56 15.99 24.66 16.41 24.66 16.83C24.66 17.69 24.23 18.52 23.37 19.32C22.51 20.1 21.39 20.97 20.01 21.93C20.87 23.21 21.6 24.3 22.2 25.2C22.8 26.1 23.29 26.85 23.67 27.45C24.07 28.03 24.36 28.48 24.54 28.8C24.72 29.12 24.81 29.34 24.81 29.46C24.81 29.6 24.73 29.73 24.57 29.85C24.41 29.95 24.19 30 23.91 30H21.87C20.83 30 19.98 29.75 19.32 29.25C18.66 28.75 18.1 28.02 17.64 27.06L16.44 24.66C15.68 25.52 15.05 26.3 14.55 27C14.07 27.7 13.67 28.3 13.35 28.8C13.03 29.28 12.77 29.66 12.57 29.94C12.37 30.2 12.17 30.33 11.97 30.33C11.83 30.33 11.61 30.26 11.31 30.12C11.03 29.98 10.74 29.78 10.44 29.52C10.14 29.24 9.88 28.91 9.66 28.53C9.44 28.13 9.33 27.67 9.33 27.15C9.33 26.71 9.43 26.29 9.63 25.89C9.83 25.47 10.14 25.06 10.56 24.66C11 24.24 11.55 23.8 12.21 23.34C12.87 22.88 13.67 22.37 14.61 21.81C13.95 20.63 13.34 19.6 12.78 18.72C12.24 17.84 11.77 17.1 11.37 16.5C10.99 15.88 10.69 15.38 10.47 15C10.25 14.62 10.14 14.33 10.14 14.13C10.14 13.93 10.27 13.78 10.53 13.68C10.81 13.56 11.31 13.5 12.03 13.5C12.81 13.5 13.46 13.57 13.98 13.71C14.5 13.83 14.94 14.01 15.3 14.25C15.66 14.49 15.95 14.78 16.17 15.12C16.41 15.46 16.64 15.84 16.86 16.26L18.24 18.93Z" fill="#B40025"/>
<path d="M18.24 18.93L17.3516 19.3892L18.0695 20.778L19.0294 19.5439L18.24 18.93ZM19.47 17.13L20.3253 17.6483L20.3319 17.637L19.47 17.13ZM20.58 15.27L19.7303 14.7426L19.7252 14.751L20.58 15.27ZM21.54 13.83L22.3451 14.4232L22.3523 14.4134L22.3592 14.4035L21.54 13.83ZM22.83 13.56L22.1841 14.3234L22.1979 14.3351L22.2122 14.3463L22.83 13.56ZM23.64 14.4L22.8456 15.0075L22.8566 15.0218L22.8681 15.0357L23.64 14.4ZM24.36 15.57L23.4496 15.9838L23.4533 15.9919L23.4571 15.9999L24.36 15.57ZM23.37 19.32L24.0419 20.0608L24.0511 20.0522L23.37 19.32ZM20.01 21.93L19.4389 21.1091L18.6312 21.671L19.18 22.4877L20.01 21.93ZM22.2 25.2L23.0321 24.6453L22.2 25.2ZM23.67 27.45L22.8252 27.9851L22.8357 28.0016L22.8468 28.0177L23.67 27.45ZM24.54 28.8L25.4116 28.3097L24.54 28.8ZM24.57 29.85L25.1 30.698L25.136 30.6755L25.17 30.65L24.57 29.85ZM17.64 27.06L18.5418 26.6279L18.5382 26.6203L18.5344 26.6128L17.64 27.06ZM16.44 24.66L17.3344 24.2128L16.6718 22.8876L15.6907 23.9978L16.44 24.66ZM14.55 27L13.7363 26.4188L13.7307 26.4266L13.7253 26.4345L14.55 27ZM13.35 28.8L14.1821 29.3547L14.1872 29.3469L14.1923 29.3391L13.35 28.8ZM12.57 29.94L13.3626 30.5497L13.3734 30.5357L13.3837 30.5212L12.57 29.94ZM11.31 30.12L10.8628 31.0144L10.8749 31.0205L10.8871 31.0262L11.31 30.12ZM10.44 29.52L9.75768 30.2511L9.77115 30.2636L9.78507 30.2757L10.44 29.52ZM9.66 28.53L8.78378 29.0119L8.78907 29.0215L8.79457 29.031L9.66 28.53ZM9.63 25.89L10.5244 26.3372L10.5287 26.3286L10.5329 26.3199L9.63 25.89ZM10.56 24.66L11.2497 25.3841L11.2505 25.3834L10.56 24.66ZM12.21 23.34L11.6382 22.5196L12.21 23.34ZM14.61 21.81L15.1218 22.6691L15.9578 22.1711L15.4828 21.3218L14.61 21.81ZM12.78 18.72L11.9277 19.243L11.932 19.25L11.9363 19.2569L12.78 18.72ZM11.37 16.5L10.5174 17.0226L10.5274 17.0388L10.5379 17.0547L11.37 16.5ZM10.47 15L9.60457 15.501L9.60457 15.501L10.47 15ZM10.53 13.68L10.889 14.6133L10.9066 14.6066L10.9239 14.5991L10.53 13.68ZM13.98 13.71L13.72 14.6756L13.7375 14.6803L13.7551 14.6844L13.98 13.71ZM15.3 14.25L15.8547 13.4179L15.8547 13.4179L15.3 14.25ZM16.17 15.12L15.3304 15.6633L15.3414 15.6802L15.353 15.6967L16.17 15.12ZM16.86 16.26L17.7484 15.8008L17.7458 15.796L16.86 16.26ZM19.0294 19.5439C19.4759 18.9698 19.9076 18.3373 20.3252 17.6483L18.6148 16.6117C18.2324 17.2427 17.8441 17.8102 17.4506 18.3161L19.0294 19.5439ZM20.3319 17.637C20.73 16.9602 21.0976 16.3443 21.4348 15.789L19.7252 14.751C19.3824 15.3157 19.01 15.9398 18.6081 16.623L20.3319 17.637ZM21.4296 15.7974C21.7812 15.2309 22.086 14.7748 22.3451 14.4232L20.7349 13.2368C20.434 13.6452 20.0988 14.1491 19.7304 14.7426L21.4296 15.7974ZM22.3592 14.4035C22.4154 14.3233 22.4632 14.2615 22.5026 14.2151C22.5426 14.168 22.5681 14.1438 22.5787 14.1346C22.5908 14.124 22.5726 14.1426 22.524 14.1663C22.4742 14.1906 22.372 14.23 22.23 14.23V12.23C21.7799 12.23 21.4472 12.4682 21.2663 12.6254C21.0643 12.801 20.8831 13.0246 20.7208 13.2565L22.3592 14.4035ZM22.23 14.23C22.1362 14.23 22.0693 14.2121 22.0384 14.2021C22.0068 14.1918 21.9942 14.1838 22.0031 14.1887C22.0111 14.1931 22.0309 14.2049 22.0633 14.2282C22.0954 14.2511 22.1355 14.2823 22.1841 14.3234L23.4759 12.7966C23.3174 12.6624 23.1461 12.5348 22.9669 12.4363C22.8023 12.3457 22.543 12.23 22.23 12.23V14.23ZM22.2122 14.3463C22.4143 14.5052 22.6268 14.7213 22.8456 15.0075L24.4344 13.7925C24.1332 13.3987 23.8057 13.0548 23.4478 12.7737L22.2122 14.3463ZM22.8681 15.0357C23.0873 15.3019 23.2824 15.6158 23.4496 15.9838L25.2704 15.1562C25.0376 14.6442 24.7527 14.1781 24.4119 13.7643L22.8681 15.0357ZM23.4571 15.9999C23.6001 16.3002 23.66 16.5741 23.66 16.83H25.66C25.66 16.2459 25.5199 15.6798 25.2629 15.1401L23.4571 15.9999ZM23.66 16.83C23.66 17.3221 23.4226 17.9053 22.6889 18.5878L24.0511 20.0522C25.0374 19.1347 25.66 18.0579 25.66 16.83H23.66ZM22.6982 18.5793C21.8806 19.3208 20.7978 20.1638 19.4389 21.1091L20.5811 22.7509C21.9822 21.7762 23.1394 20.8792 24.0418 20.0607L22.6982 18.5793ZM19.18 22.4877C20.0395 23.7671 20.7688 24.856 21.368 25.7547L23.0321 24.6453C22.4312 23.744 21.7005 22.6529 20.84 21.3723L19.18 22.4877ZM21.368 25.7547C21.9656 26.6512 22.4509 27.3941 22.8252 27.9851L24.5148 26.9149C24.1291 26.3059 23.6344 25.5488 23.0321 24.6453L21.368 25.7547ZM22.8468 28.0177C23.2421 28.591 23.5113 29.0109 23.6684 29.2903L25.4116 28.3097C25.2087 27.9491 24.8979 27.469 24.4932 26.8823L22.8468 28.0177ZM23.6684 29.2903C23.7478 29.4313 23.7936 29.5266 23.817 29.5836C23.8284 29.6115 23.8293 29.618 23.8264 29.6071C23.8248 29.6011 23.81 29.5463 23.81 29.46H25.81C25.81 29.1968 25.7235 28.962 25.668 28.8264C25.6014 28.6634 25.5122 28.4887 25.4116 28.3097L23.6684 29.2903ZM23.81 29.46C23.81 29.3284 23.8504 29.2163 23.8983 29.1384C23.9411 29.0689 23.9791 29.0432 23.97 29.05L25.17 30.65C25.4678 30.4267 25.81 30.0342 25.81 29.46H23.81ZM24.04 29.002C24.0715 28.9823 24.085 28.9825 24.0634 28.9874C24.041 28.9924 23.9925 29 23.91 29V31C24.2925 31 24.7218 30.9344 25.1 30.698L24.04 29.002ZM23.91 29H21.87V31H23.91V29ZM21.87 29C20.9914 29 20.3698 28.7907 19.9239 28.4529L18.7161 30.0471C19.5902 30.7093 20.6686 31 21.87 31V29ZM19.9239 28.4529C19.4219 28.0726 18.9521 27.484 18.5418 26.6279L16.7382 27.4921C17.2479 28.556 17.8981 29.4274 18.7161 30.0471L19.9239 28.4529ZM18.5344 26.6128L17.3344 24.2128L15.5456 25.1072L16.7456 27.5072L18.5344 26.6128ZM15.6907 23.9978C14.9148 24.8757 14.2617 25.6832 13.7363 26.4188L15.3637 27.5812C15.8383 26.9168 16.4452 26.1643 17.1893 25.3222L15.6907 23.9978ZM13.7253 26.4345C13.2416 27.1398 12.8353 27.7492 12.5077 28.2609L14.1923 29.3391C14.5047 28.8508 14.8984 28.2602 15.3747 27.5655L13.7253 26.4345ZM12.518 28.2453C12.2005 28.7214 11.9473 29.0914 11.7563 29.3588L13.3837 30.5212C13.5927 30.2286 13.8595 29.8386 14.1821 29.3547L12.518 28.2453ZM11.7774 29.3303C11.7224 29.4018 11.7019 29.4091 11.725 29.3941C11.7387 29.3851 11.7674 29.3687 11.8109 29.3546C11.8556 29.3401 11.9097 29.33 11.97 29.33V31.33C12.6354 31.33 13.0937 30.8993 13.3626 30.5497L11.7774 29.3303ZM11.97 29.33C11.9937 29.33 12.0116 29.3315 12.0225 29.3326C12.0335 29.3339 12.0398 29.3351 12.0409 29.3353C12.0421 29.3355 12.0303 29.3332 12.0032 29.3246C11.9474 29.3068 11.8592 29.2727 11.7329 29.2138L10.8871 31.0262C11.1862 31.1657 11.5863 31.33 11.97 31.33V29.33ZM11.7572 29.2256C11.5688 29.1314 11.3478 28.9834 11.0949 28.7643L9.78507 30.2757C10.1322 30.5766 10.4912 30.8286 10.8628 31.0144L11.7572 29.2256ZM11.1223 28.7889C10.8992 28.5807 10.6995 28.3296 10.5254 28.029L8.79457 29.031C9.06049 29.4904 9.38078 29.8993 9.75768 30.2511L11.1223 28.7889ZM10.5362 28.0481C10.4081 27.8152 10.33 27.5252 10.33 27.15H8.33C8.33 27.8148 8.47186 28.4448 8.78378 29.0119L10.5362 28.0481ZM10.33 27.15C10.33 26.8679 10.3927 26.6007 10.5244 26.3372L8.73557 25.4428C8.46733 25.9793 8.33 26.5521 8.33 27.15H10.33ZM10.5329 26.3199C10.6692 26.0337 10.8971 25.7199 11.2497 25.3841L9.87034 23.9359C9.38292 24.4001 8.99082 24.9063 8.72714 25.4601L10.5329 26.3199ZM11.2505 25.3834C11.6438 25.0079 12.1513 24.5999 12.7818 24.1604L11.6382 22.5196C10.9487 23.0001 10.3562 23.4721 9.86952 23.9366L11.2505 25.3834ZM12.7818 24.1604C13.4168 23.7178 14.1955 23.2209 15.1218 22.6691L14.0982 20.9509C13.1445 21.5191 12.3232 22.0422 11.6382 22.5196L12.7818 24.1604ZM15.4828 21.3218C14.8161 20.1299 14.1963 19.0829 13.6237 18.1831L11.9363 19.2569C12.4837 20.1171 13.0839 21.1301 13.7372 22.2982L15.4828 21.3218ZM13.6323 18.197C13.0883 17.3104 12.6113 16.5591 12.2021 15.9453L10.5379 17.0547C10.9287 17.6409 11.3917 18.3696 11.9277 19.243L13.6323 18.197ZM12.2226 15.9774C11.8445 15.3606 11.5494 14.8686 11.3354 14.499L9.60457 15.501C9.83057 15.8914 10.1355 16.3994 10.5174 17.0226L12.2226 15.9774ZM11.3354 14.499C11.2424 14.3382 11.1872 14.2213 11.1575 14.1428C11.1244 14.0556 11.14 14.061 11.14 14.13H9.14C9.14 14.6182 9.37848 15.1105 9.60457 15.501L11.3354 14.499ZM11.14 14.13C11.14 14.1903 11.1298 14.2622 11.1018 14.3376C11.0738 14.4131 11.0341 14.4752 10.9932 14.5224C10.9162 14.6112 10.8538 14.6269 10.889 14.6133L10.171 12.7467C9.94619 12.8331 9.68876 12.9738 9.48181 13.2126C9.25793 13.4709 9.14 13.7914 9.14 14.13H11.14ZM10.9239 14.5991C10.9237 14.5992 10.93 14.5966 10.9444 14.592C10.9587 14.5876 10.979 14.5819 11.0061 14.5756C11.0612 14.5629 11.1361 14.5496 11.2341 14.5379C11.4318 14.5142 11.6944 14.5 12.03 14.5V12.5C11.3103 12.5 10.6233 12.552 10.1361 12.7609L10.9239 14.5991ZM12.03 14.5C12.7578 14.5 13.3134 14.5661 13.72 14.6756L14.24 12.7444C13.6066 12.5739 12.8622 12.5 12.03 12.5V14.5ZM13.7551 14.6844C14.184 14.7834 14.5061 14.9226 14.7453 15.0821L15.8547 13.4179C15.3739 13.0974 14.816 12.8766 14.2049 12.7356L13.7551 14.6844ZM14.7453 15.082C14.9995 15.2515 15.1896 15.4457 15.3304 15.6633L17.0096 14.5767C16.7104 14.1143 16.3205 13.7285 15.8547 13.4179L14.7453 15.082ZM15.353 15.6967C15.5644 15.9961 15.7719 16.3378 15.9742 16.724L17.7458 15.796C17.5081 15.3422 17.2556 14.9239 16.987 14.5433L15.353 15.6967ZM15.9716 16.7192L17.3516 19.3892L19.1284 18.4708L17.7484 15.8008L15.9716 16.7192Z" fill="black"/>
</svg>
